<svg width="838" height="515" viewBox="0 0 838 515" fill="none" xmlns="http://www.w3.org/2000/svg">
<path d="M0.999512 259H72.4995C73.0518 259 73.4995 258.552 73.4995 258V214.5C73.4995 213.948 73.9472 213.5 74.4995 213.5H105C105.552 213.5 106 213.052 106 212.5V159C106 158.448 106.447 158 107 158H148C148.552 158 149 158.448 149 159V212.5C149 213.052 149.447 213.5 150 213.5H177.5C178.052 213.5 178.5 213.948 178.5 214.5V259V431C178.5 431.552 178.947 432 179.5 432H202C202.552 432 203 431.552 203 431V88C203 87.4477 203.447 87 204 87H233C233.552 87 234 87.4477 234 88V157C234 157.552 234.447 158 235 158H263.047C263.435 158 263.75 157.685 263.75 157.297V104.875C263.75 95.0029 271.752 87 281.625 87C291.497 87 299.5 95.0029 299.5 104.875V212.5C299.5 213.052 299.947 213.5 300.5 213.5H338.95C339.253 213.5 339.5 213.254 339.5 212.95V180.75C339.5 168.186 349.685 158 362.25 158C374.814 158 385 168.186 385 180.75V212.95C385 213.254 385.246 213.5 385.549 213.5H417C417.552 213.5 418 213.052 418 212.5V159C418 158.448 418.447 158 419 158H462.5C463.052 158 463.5 158.448 463.5 159V213.5V431C463.5 431.552 463.947 432 464.5 432H489C489.552 432 490 431.552 490 431V112.5C490 111.948 490.447 111.5 491 111.5H512.5C513.052 111.5 513.5 111.948 513.5 112.5V163.5C513.5 164.052 513.947 164.5 514.5 164.5H538.975C539.265 164.5 539.5 164.265 539.5 163.975V129.5C539.5 119.559 547.558 111.5 557.5 111.5C567.441 111.5 575.5 119.559 575.5 129.5V431C575.5 431.552 575.947 432 576.5 432H595.006C595.556 432 596.003 431.556 596.006 431.007L597.993 143.993C597.996 143.444 598.443 143 598.993 143H619C619.552 143 620 143.448 620 144V185.5C620 186.052 620.447 186.5 621 186.5H651.569C651.807 186.5 652 186.307 652 186.069V161.5C652 151.283 660.282 143 670.5 143C680.717 143 689 151.283 689 161.5V186.5V431C689 431.552 689.447 432 690 432H699V151.5C699 150.948 699.447 150.5 700 150.5H711.5C712.052 150.5 712.5 150.052 712.5 149.5V129C712.5 128.448 712.947 128 713.5 128H743.5C744.052 128 744.5 128.448 744.5 129V149.5C744.5 150.052 744.947 150.5 745.5 150.5H755.5C756.052 150.5 756.5 150.948 756.5 151.5V432H768.5C769.052 432 769.5 431.552 769.5 431V260C769.5 259.448 769.947 259 770.5 259H837C837.552 259 838 259.448 838 260V513.5C838 514.052 837.552 514.5 837 514.5H0.999534C0.44725 514.5 -0.000488281 514.052 -0.000488281 513.5V260C-0.000488281 259.448 0.447227 259 0.999512 259Z" fill="#9DB4B5"/>
<path d="M223.392 59.6676C223.392 71.9272 215.86 64.2142 203.601 64.2142C191.341 64.2142 178.996 71.9272 178.996 59.6676C178.996 47.4079 188.934 37.4695 201.194 37.4695C213.453 37.4695 223.392 47.4079 223.392 59.6676Z" fill="#D9D9D9"/>
<path d="M248.532 49.5046C248.532 61.7643 240.198 61.2723 227.939 61.2723C215.679 61.2723 204.136 61.7643 204.136 49.5046C204.136 37.2449 214.074 27.3065 226.334 27.3065C238.593 27.3065 248.532 37.2449 248.532 49.5046Z" fill="#D9D9D9"/>
<path d="M270.997 59.6676C270.997 62.5837 271.079 65.8232 270.195 66.6212C267.363 69.1779 259.747 61.5397 250.404 61.5397C238.144 61.5397 226.601 66.0434 226.601 53.7837C226.601 41.5241 236.539 37.4695 248.799 37.4695C261.059 37.4695 270.997 47.4079 270.997 59.6676Z" fill="#D9D9D9"/>
<rect x="179.53" y="54.5861" width="90.9319" height="12.8374" fill="#D9D9D9"/>
<path d="M49.9542 61.1055C49.9542 69.1011 45.0423 64.0707 37.0467 64.0707C29.0511 64.0707 20.9995 69.1011 20.9995 61.1055C20.9995 53.1099 27.4812 46.6282 35.4768 46.6282C43.4724 46.6282 49.9542 53.1099 49.9542 61.1055Z" fill="#D9D9D9"/>
<path d="M66.3502 54.4773C66.3502 62.4729 60.915 62.1521 52.9194 62.1521C44.9238 62.1521 37.3955 62.4729 37.3955 54.4773C37.3955 46.4817 43.8772 40 51.8728 40C59.8684 40 66.3502 46.4817 66.3502 54.4773Z" fill="#D9D9D9"/>
<path d="M81.002 61.1055C81.002 63.0074 81.0551 65.1201 80.4787 65.6406C78.6321 67.308 73.665 62.3265 67.5712 62.3265C59.5756 62.3265 52.0474 65.2637 52.0474 57.2681C52.0474 49.2725 58.5291 46.6282 66.5247 46.6282C74.5203 46.6282 81.002 53.1099 81.002 61.1055Z" fill="#D9D9D9"/>
<rect x="21.3481" y="57.7914" width="59.3047" height="8.37243" fill="#D9D9D9"/>
<path d="M466.906 49.9978C466.906 58.3315 461.787 53.0884 453.453 53.0884C445.119 53.0884 436.728 58.3315 436.728 49.9978C436.728 41.6642 443.483 34.9084 451.817 34.9084C460.151 34.9084 466.906 41.6642 466.906 49.9978Z" fill="#D9D9D9"/>
<path d="M483.995 43.0894C483.995 51.423 478.33 51.0886 469.997 51.0886C461.663 51.0886 453.816 51.423 453.816 43.0894C453.816 34.7557 460.572 28 468.906 28C477.239 28 483.995 34.7557 483.995 43.0894Z" fill="#D9D9D9"/>
<path d="M499.266 49.9978C499.266 51.9801 499.322 54.1822 498.721 54.7246C496.796 56.4626 491.619 51.2704 485.268 51.2704C476.934 51.2704 469.087 54.3319 469.087 45.9982C469.087 37.6646 475.843 34.9084 484.177 34.9084C492.51 34.9084 499.266 41.6642 499.266 49.9978Z" fill="#D9D9D9"/>
<rect x="437.091" y="46.5436" width="61.8119" height="8.72639" fill="#D9D9D9"/>
<path d="M663.725 63.9443C663.725 88.169 648.844 72.9282 624.619 72.9282C600.394 72.9282 576 88.169 576 63.9443C576 39.7195 595.638 20.0815 619.863 20.0815C644.087 20.0815 663.725 39.7195 663.725 63.9443Z" fill="#D9D9D9"/>
<path d="M713.402 43.8627C713.402 68.0874 696.934 67.1152 672.71 67.1152C648.485 67.1152 625.676 68.0874 625.676 43.8627C625.676 19.638 645.314 0 669.539 0C693.764 0 713.402 19.638 713.402 43.8627Z" fill="#D9D9D9"/>
<path d="M757.793 63.9443C757.793 69.7065 757.954 76.1076 756.207 77.6844C750.612 82.7364 735.563 67.6435 717.101 67.6435C692.876 67.6435 670.067 76.5427 670.067 52.318C670.067 28.0933 689.705 20.0815 713.93 20.0815C738.155 20.0815 757.793 39.7196 757.793 63.9443Z" fill="#D9D9D9"/>
<rect x="577.057" y="53.9034" width="179.679" height="25.3664" fill="#D9D9D9"/>
<path d="M85.7147 152.976V153.038H85.8371V152.976H85.7147ZM88.7556 150.058C88.7894 150.058 88.8168 150.03 88.8168 149.997C88.8168 149.963 88.7894 149.935 88.7556 149.935V150.058ZM85.8371 152.976C85.8371 151.364 87.1438 150.058 88.7556 150.058V149.935C87.0761 149.935 85.7147 151.297 85.7147 152.976H85.8371Z" fill="black"/>
<path d="M85.7354 152.976C85.7354 151.331 84.4013 149.997 82.7556 149.997" stroke="black" stroke-width="0.122454" stroke-linecap="round" stroke-linejoin="round"/>
<path d="M91.793 143.976L91.7962 144.038L91.9185 144.031L91.9153 143.97L91.793 143.976ZM94.6771 140.903C94.7108 140.901 94.7368 140.872 94.735 140.838C94.7332 140.805 94.7044 140.779 94.6707 140.78L94.6771 140.903ZM91.9153 143.97C91.831 142.36 93.0674 140.987 94.6771 140.903L94.6707 140.78C92.9935 140.868 91.7051 142.299 91.793 143.976L91.9153 143.97Z" fill="black"/>
<path d="M91.8132 143.975C91.727 142.332 90.325 141.07 88.6816 141.156" stroke="black" stroke-width="0.122454" stroke-linecap="round" stroke-linejoin="round"/>
<path d="M79.8292 145.956L79.8356 146.078L80.0802 146.065L80.0738 145.943L79.8292 145.956ZM85.5969 139.809C85.6644 139.805 85.7163 139.748 85.7127 139.68C85.7092 139.613 85.6516 139.561 85.584 139.564L85.5969 139.809ZM80.0738 145.943C79.9051 142.724 82.3779 139.978 85.5969 139.809L85.584 139.564C82.23 139.74 79.6535 142.602 79.8292 145.956L80.0738 145.943Z" fill="black"/>
<path d="M79.8705 145.953C79.6982 142.667 76.8943 140.142 73.6078 140.315" stroke="black" stroke-width="0.244889" stroke-linecap="round" stroke-linejoin="round"/>
<path d="M654.622 121.669L654.58 121.827L654.895 121.912L654.938 121.754L654.622 121.669ZM664.469 116.251C664.556 116.274 664.645 116.223 664.669 116.136C664.692 116.049 664.64 115.959 664.553 115.936L664.469 116.251ZM654.938 121.754C656.05 117.602 660.317 115.139 664.469 116.251L664.553 115.936C660.228 114.777 655.781 117.344 654.622 121.669L654.938 121.754Z" fill="black"/>
<path d="M654.675 121.684C655.81 117.445 653.295 113.088 649.056 111.953" stroke="black" stroke-width="0.326521" stroke-linecap="round" stroke-linejoin="round"/>
<path d="M623.622 88.7168L623.58 88.8745L623.895 88.959L623.937 88.8013L623.622 88.7168ZM633.468 83.2986C633.555 83.3219 633.645 83.2702 633.668 83.1831C633.692 83.096 633.64 83.0065 633.553 82.9832L633.468 83.2986ZM623.937 88.8013C625.05 84.6499 629.317 82.1862 633.468 83.2986L633.553 82.9832C629.227 81.8241 624.781 84.3912 623.622 88.7168L623.937 88.8013Z" fill="black"/>
<path d="M623.674 88.731C624.81 84.4924 622.294 80.1357 618.056 79" stroke="black" stroke-width="0.326521" stroke-linecap="round" stroke-linejoin="round"/>
<path d="M656.331 102.854L656.315 102.913L656.433 102.945L656.449 102.885L656.331 102.854ZM660.023 100.822C660.056 100.83 660.09 100.811 660.098 100.778C660.107 100.746 660.088 100.712 660.055 100.703L660.023 100.822ZM656.449 102.885C656.866 101.328 658.467 100.405 660.023 100.822L660.055 100.703C658.433 100.269 656.765 101.231 656.331 102.854L656.449 102.885Z" fill="black"/>
<path d="M656.35 102.859C656.776 101.269 655.833 99.6354 654.243 99.2095" stroke="black" stroke-width="0.122454" stroke-linecap="round" stroke-linejoin="round"/>
<path d="M704.715 127.915V127.976H704.837V127.915H704.715ZM707.756 124.996C707.789 124.996 707.817 124.969 707.817 124.935C707.817 124.901 707.789 124.874 707.756 124.874V124.996ZM704.837 127.915C704.837 126.303 706.144 124.996 707.756 124.996V124.874C706.076 124.874 704.715 126.235 704.715 127.915H704.837Z" fill="black"/>
<path d="M704.735 127.915C704.735 126.269 703.401 124.935 701.756 124.935" stroke="black" stroke-width="0.122454" stroke-linecap="round" stroke-linejoin="round"/>
<path d="M662.331 93.8537L662.315 93.9128L662.433 93.9445L662.449 93.8854L662.331 93.8537ZM666.023 91.8217C666.056 91.8304 666.09 91.811 666.098 91.7784C666.107 91.7457 666.088 91.7122 666.055 91.7034L666.023 91.8217ZM662.449 93.8854C662.866 92.3284 664.467 91.4045 666.023 91.8217L666.055 91.7034C664.433 91.2687 662.765 92.2314 662.331 93.8537L662.449 93.8854Z" fill="black"/>
<path d="M662.35 93.8589C662.776 92.2693 661.833 90.6354 660.243 90.2095" stroke="black" stroke-width="0.122454" stroke-linecap="round" stroke-linejoin="round"/>
<path d="M710.793 118.915L710.796 118.976L710.919 118.97L710.915 118.909L710.793 118.915ZM713.677 115.841C713.711 115.84 713.737 115.811 713.735 115.777C713.733 115.743 713.704 115.717 713.671 115.719L713.677 115.841ZM710.915 118.909C710.831 117.299 712.067 115.926 713.677 115.841L713.671 115.719C711.994 115.807 710.705 117.238 710.793 118.915L710.915 118.909Z" fill="black"/>
<path d="M710.813 118.914C710.727 117.271 709.325 116.008 707.682 116.094" stroke="black" stroke-width="0.122454" stroke-linecap="round" stroke-linejoin="round"/>
<path d="M649.904 95.7713L649.873 95.8896L650.109 95.953L650.141 95.8347L649.904 95.7713ZM657.289 91.7077C657.354 91.7252 657.422 91.6864 657.439 91.6211C657.457 91.5558 657.418 91.4886 657.353 91.4711L657.289 91.7077ZM650.141 95.8347C650.975 92.7211 654.176 90.8734 657.289 91.7077L657.353 91.4711C654.108 90.6019 650.774 92.5271 649.904 95.7713L650.141 95.8347Z" fill="black"/>
<path d="M649.945 95.782C650.796 92.6031 648.91 89.3356 645.731 88.4838" stroke="black" stroke-width="0.244889" stroke-linecap="round" stroke-linejoin="round"/>
<path d="M698.829 120.894L698.836 121.016L699.08 121.004L699.074 120.881L698.829 120.894ZM704.597 114.747C704.664 114.744 704.716 114.686 704.713 114.619C704.709 114.551 704.652 114.499 704.584 114.503L704.597 114.747ZM699.074 120.881C698.905 117.662 701.378 114.916 704.597 114.747L704.584 114.503C701.23 114.679 698.653 117.54 698.829 120.894L699.074 120.881Z" fill="black"/>
<path d="M698.87 120.892C698.698 117.606 695.894 115.081 692.608 115.253" stroke="black" stroke-width="0.244889" stroke-linecap="round" stroke-linejoin="round"/>
<path d="M634.197 113.146L634.139 113.362L634.572 113.479L634.63 113.262L634.197 113.146ZM647.736 105.695C647.856 105.727 647.979 105.656 648.011 105.537C648.043 105.417 647.972 105.294 647.852 105.262L647.736 105.695ZM634.63 113.262C636.16 107.553 642.028 104.166 647.736 105.695L647.852 105.262C641.904 103.668 635.79 107.198 634.197 113.146L634.63 113.262Z" fill="black"/>
<path d="M634.269 113.165C635.831 107.337 632.372 101.346 626.544 99.7844" stroke="black" stroke-width="0.448981" stroke-linecap="round" stroke-linejoin="round"/>
<path d="M686.892 98.8608L686.904 99.085L687.352 99.0615L687.34 98.8373L686.892 98.8608ZM697.466 87.5912C697.59 87.5848 697.685 87.4791 697.679 87.3553C697.672 87.2315 697.567 87.1364 697.443 87.1429L697.466 87.5912ZM687.34 98.8373C687.031 92.9356 691.565 87.9005 697.466 87.5912L697.443 87.1429C691.294 87.4652 686.57 92.7115 686.892 98.8608L687.34 98.8373Z" fill="black"/>
<path d="M686.966 98.8569C686.651 92.8313 681.51 88.2027 675.484 88.5184" stroke="black" stroke-width="0.448981" stroke-linecap="round" stroke-linejoin="round"/>
<path d="M734.892 123.861L734.904 124.085L735.352 124.061L735.34 123.837L734.892 123.861ZM745.466 112.591C745.59 112.585 745.685 112.479 745.679 112.355C745.672 112.231 745.567 112.136 745.443 112.143L745.466 112.591ZM735.34 123.837C735.031 117.935 739.565 112.9 745.466 112.591L745.443 112.143C739.294 112.465 734.57 117.711 734.892 123.861L735.34 123.837Z" fill="black"/>
<path d="M734.966 123.857C734.651 117.831 729.51 113.203 723.484 113.518" stroke="black" stroke-width="0.448981" stroke-linecap="round" stroke-linejoin="round"/>
<path d="M671.854 116.881L671.863 117.044L672.189 117.027L672.18 116.864L671.854 116.881ZM679.545 108.685C679.635 108.68 679.704 108.603 679.699 108.513C679.694 108.423 679.618 108.354 679.527 108.359L679.545 108.685ZM672.18 116.864C671.955 112.572 675.253 108.91 679.545 108.685L679.527 108.359C675.055 108.593 671.62 112.409 671.854 116.881L672.18 116.864Z" fill="black"/>
<path d="M671.909 116.878C671.679 112.496 667.94 109.13 663.558 109.359" stroke="black" stroke-width="0.326521" stroke-linecap="round" stroke-linejoin="round"/>
<path d="M173.37 162.287L173.292 162.729L174.176 162.885L174.254 162.443L173.37 162.287ZM199.047 145.083C199.291 145.126 199.524 144.963 199.567 144.718C199.61 144.474 199.447 144.241 199.203 144.198L199.047 145.083ZM174.254 162.443C176.307 150.802 187.407 143.03 199.047 145.083L199.203 144.198C187.074 142.06 175.509 150.158 173.37 162.287L174.254 162.443Z" fill="black"/>
<path d="M173.518 162.313C175.613 150.428 167.678 139.096 155.794 137" stroke="black" stroke-width="0.897959" stroke-linecap="round" stroke-linejoin="round"/>
<path d="M35.6218 146.731L35.5796 146.888L35.895 146.973L35.9372 146.815L35.6218 146.731ZM45.4683 141.312C45.5554 141.336 45.6449 141.284 45.6682 141.197C45.6916 141.11 45.6399 141.02 45.5528 140.997L45.4683 141.312ZM35.9372 146.815C37.0496 142.664 41.3168 140.2 45.4683 141.312L45.5528 140.997C41.2271 139.838 36.7809 142.405 35.6218 146.731L35.9372 146.815Z" fill="black"/>
<path d="M35.6741 146.745C36.8098 142.506 34.2944 138.15 30.0559 137.014" stroke="black" stroke-width="0.326521" stroke-linecap="round" stroke-linejoin="round"/>
<path d="M13.6223 113.778L13.5801 113.936L13.8955 114.02L13.9377 113.863L13.6223 113.778ZM23.4688 108.36C23.5559 108.383 23.6454 108.332 23.6687 108.245C23.6921 108.157 23.6404 108.068 23.5533 108.045L23.4688 108.36ZM13.9377 113.863C15.0501 109.711 19.3173 107.248 23.4688 108.36L23.5533 108.045C19.2276 106.886 14.7814 109.453 13.6223 113.778L13.9377 113.863Z" fill="black"/>
<path d="M13.6746 113.792C14.8103 109.554 12.2949 105.197 8.05635 104.061" stroke="black" stroke-width="0.326521" stroke-linecap="round" stroke-linejoin="round"/>
<path d="M146.338 133.853L146.366 134.014L146.688 133.957L146.66 133.796L146.338 133.853ZM152.972 124.781C153.061 124.765 153.12 124.681 153.105 124.592C153.089 124.503 153.004 124.444 152.915 124.46L152.972 124.781ZM146.66 133.796C145.913 129.564 148.739 125.527 152.972 124.781L152.915 124.46C148.505 125.237 145.56 129.443 146.338 133.853L146.66 133.796Z" fill="black"/>
<path d="M146.391 133.844C145.629 129.522 141.509 126.637 137.187 127.399" stroke="black" stroke-width="0.326521" stroke-linecap="round" stroke-linejoin="round"/>
<path d="M37.3303 127.915L37.3145 127.974L37.4327 128.006L37.4486 127.947L37.3303 127.915ZM41.023 125.883C41.0556 125.892 41.0892 125.872 41.098 125.84C41.1067 125.807 41.0873 125.774 41.0547 125.765L41.023 125.883ZM37.4486 127.947C37.8658 126.39 39.4661 125.466 41.023 125.883L41.0547 125.765C39.4324 125.33 37.765 126.293 37.3303 127.915L37.4486 127.947Z" fill="black"/>
<path d="M37.3499 127.92C37.7758 126.331 36.8325 124.697 35.2429 124.271" stroke="black" stroke-width="0.122454" stroke-linecap="round" stroke-linejoin="round"/>
<path d="M146.974 114.961L146.985 115.021L147.105 115L147.095 114.939L146.974 114.961ZM149.462 111.559C149.495 111.553 149.518 111.521 149.512 111.488C149.506 111.454 149.474 111.432 149.441 111.438L149.462 111.559ZM147.095 114.939C146.815 113.352 147.875 111.838 149.462 111.559L149.441 111.438C147.787 111.73 146.683 113.307 146.974 114.961L147.095 114.939Z" fill="black"/>
<path d="M146.994 114.957C146.709 113.336 145.163 112.254 143.543 112.54" stroke="black" stroke-width="0.122454" stroke-linecap="round" stroke-linejoin="round"/>
<path d="M43.3303 118.915L43.3145 118.974L43.4327 119.006L43.4486 118.947L43.3303 118.915ZM47.023 116.883C47.0556 116.892 47.0892 116.872 47.098 116.84C47.1067 116.807 47.0873 116.774 47.0547 116.765L47.023 116.883ZM43.4486 118.947C43.8658 117.39 45.4661 116.466 47.023 116.883L47.0547 116.765C45.4324 116.33 43.765 117.293 43.3303 118.915L43.4486 118.947Z" fill="black"/>
<path d="M43.3499 118.92C43.7758 117.331 42.8325 115.697 41.2429 115.271" stroke="black" stroke-width="0.122454" stroke-linecap="round" stroke-linejoin="round"/>
<path d="M152.974 105.961L152.985 106.021L153.105 106L153.095 105.939L152.974 105.961ZM155.462 102.559C155.495 102.553 155.518 102.521 155.512 102.488C155.506 102.454 155.474 102.432 155.441 102.438L155.462 102.559ZM153.095 105.939C152.815 104.352 153.875 102.838 155.462 102.559L155.441 102.438C153.787 102.73 152.683 104.307 152.974 105.961L153.095 105.939Z" fill="black"/>
<path d="M152.994 105.957C152.709 104.336 151.163 103.254 149.543 103.54" stroke="black" stroke-width="0.122454" stroke-linecap="round" stroke-linejoin="round"/>
<path d="M30.9039 120.833L30.8722 120.951L31.1087 121.014L31.1404 120.896L30.9039 120.833ZM38.2887 116.769C38.354 116.787 38.4211 116.748 38.4386 116.683C38.4561 116.617 38.4174 116.55 38.3521 116.533L38.2887 116.769ZM31.1404 120.896C31.9747 117.783 35.1751 115.935 38.2887 116.769L38.3521 116.533C35.1078 115.663 31.7732 117.589 30.9039 120.833L31.1404 120.896Z" fill="black"/>
<path d="M30.944 120.843C31.7958 117.665 29.9093 114.397 26.7304 113.545" stroke="black" stroke-width="0.244889" stroke-linecap="round" stroke-linejoin="round"/>
<path d="M141.192 107.924L141.213 108.045L141.454 108.003L141.433 107.882L141.192 107.924ZM146.167 101.121C146.234 101.109 146.278 101.045 146.266 100.979C146.255 100.912 146.191 100.868 146.125 100.879L146.167 101.121ZM141.433 107.882C140.873 104.708 142.993 101.68 146.167 101.121L146.125 100.879C142.817 101.463 140.608 104.617 141.192 107.924L141.433 107.882Z" fill="black"/>
<path d="M141.233 107.917C140.661 104.676 137.57 102.512 134.329 103.084" stroke="black" stroke-width="0.244889" stroke-linecap="round" stroke-linejoin="round"/>
<path d="M15.1962 138.207L15.1381 138.424L15.5718 138.54L15.6299 138.323L15.1962 138.207ZM28.7356 130.757C28.8553 130.789 28.9784 130.718 29.0105 130.598C29.0426 130.478 28.9715 130.355 28.8518 130.323L28.7356 130.757ZM15.6299 138.323C17.1595 132.615 23.0271 129.227 28.7356 130.757L28.8518 130.323C22.9038 128.729 16.79 132.259 15.1962 138.207L15.6299 138.323Z" fill="black"/>
<path d="M15.2685 138.226C16.8302 132.398 13.3715 126.407 7.54326 124.846" stroke="black" stroke-width="0.448981" stroke-linecap="round" stroke-linejoin="round"/>
<path d="M67.8915 123.922L67.9033 124.146L68.3517 124.123L68.3399 123.899L67.8915 123.922ZM78.4659 112.653C78.5897 112.646 78.6848 112.541 78.6784 112.417C78.6719 112.293 78.5662 112.198 78.4424 112.204L78.4659 112.653ZM68.3399 123.899C68.0306 117.997 72.5642 112.962 78.4659 112.653L78.4424 112.204C72.2931 112.527 67.5693 117.773 67.8915 123.922L68.3399 123.899Z" fill="black"/>
<path d="M67.9658 123.918C67.65 117.893 62.5094 113.264 56.4838 113.58" stroke="black" stroke-width="0.448981" stroke-linecap="round" stroke-linejoin="round"/>
<path d="M115.892 148.922L115.903 149.146L116.352 149.123L116.34 148.899L115.892 148.922ZM126.466 137.653C126.59 137.646 126.685 137.54 126.678 137.417C126.672 137.293 126.566 137.198 126.442 137.204L126.466 137.653ZM116.34 148.899C116.031 142.997 120.564 137.962 126.466 137.653L126.442 137.204C120.293 137.526 115.569 142.773 115.892 148.922L116.34 148.899Z" fill="black"/>
<path d="M115.966 148.918C115.65 142.893 110.509 138.264 104.484 138.58" stroke="black" stroke-width="0.448981" stroke-linecap="round" stroke-linejoin="round"/>
<path d="M125.892 125.432L125.904 125.656L126.352 125.633L126.34 125.409L125.892 125.432ZM136.466 114.163C136.59 114.156 136.685 114.051 136.679 113.927C136.672 113.803 136.567 113.708 136.443 113.714L136.466 114.163ZM126.34 125.409C126.031 119.507 130.565 114.472 136.466 114.163L136.443 113.714C130.294 114.037 125.57 119.283 125.892 125.432L126.34 125.409Z" fill="black"/>
<path d="M125.966 125.428C125.651 119.403 120.51 114.774 114.484 115.09" stroke="black" stroke-width="0.448981" stroke-linecap="round" stroke-linejoin="round"/>
<path d="M52.8539 141.942L52.8624 142.105L53.1885 142.088L53.1799 141.925L52.8539 141.942ZM60.5441 133.746C60.6341 133.742 60.7033 133.665 60.6986 133.575C60.6938 133.485 60.617 133.416 60.527 133.42L60.5441 133.746ZM53.1799 141.925C52.955 137.633 56.252 133.971 60.5441 133.746L60.527 133.42C56.0549 133.655 52.6195 137.47 52.8539 141.942L53.1799 141.925Z" fill="black"/>
<path d="M52.908 141.939C52.6784 137.557 48.9398 134.191 44.5577 134.421" stroke="black" stroke-width="0.326521" stroke-linecap="round" stroke-linejoin="round"/>
<path d="M162.338 128.9L162.366 129.061L162.687 129.005L162.659 128.844L162.338 128.9ZM168.972 119.829C169.06 119.813 169.12 119.728 169.104 119.639C169.088 119.551 169.004 119.491 168.915 119.507L168.972 119.829ZM162.659 128.844C161.913 124.611 164.739 120.575 168.972 119.829L168.915 119.507C164.505 120.285 161.56 124.49 162.338 128.9L162.659 128.844Z" fill="black"/>
<path d="M162.391 128.891C161.629 124.57 157.508 121.684 153.187 122.446" stroke="black" stroke-width="0.326521" stroke-linecap="round" stroke-linejoin="round"/>
<path d="M346.866 122.734L346.824 122.892L347.14 122.976L347.182 122.819L346.866 122.734ZM356.713 117.316C356.8 117.339 356.89 117.288 356.913 117.2C356.936 117.113 356.885 117.024 356.797 117.001L356.713 117.316ZM347.182 122.819C348.294 118.667 352.561 116.204 356.713 117.316L356.797 117.001C352.472 115.841 348.026 118.408 346.866 122.734L347.182 122.819Z" fill="black"/>
<path d="M346.919 122.748C348.054 118.51 345.539 114.153 341.3 113.017" stroke="black" stroke-width="0.326521" stroke-linecap="round" stroke-linejoin="round"/>
<path d="M315.866 89.7816L315.824 89.9393L316.139 90.0239L316.181 89.8662L315.866 89.7816ZM325.712 84.3634C325.8 84.3867 325.889 84.335 325.912 84.248C325.936 84.1609 325.884 84.0713 325.797 84.048L325.712 84.3634ZM316.181 89.8662C317.294 85.7147 321.561 83.251 325.712 84.3634L325.797 84.048C321.471 82.8889 317.025 85.456 315.866 89.7816L316.181 89.8662Z" fill="black"/>
<path d="M315.918 89.7958C317.054 85.5573 314.539 81.2005 310.3 80.0648" stroke="black" stroke-width="0.326521" stroke-linecap="round" stroke-linejoin="round"/>
<path d="M457.583 109.856L457.611 110.017L457.933 109.96L457.904 109.8L457.583 109.856ZM464.217 100.785C464.306 100.769 464.365 100.684 464.349 100.595C464.334 100.507 464.249 100.447 464.16 100.463L464.217 100.785ZM457.904 109.8C457.158 105.567 459.984 101.531 464.217 100.785L464.16 100.463C459.75 101.241 456.805 105.446 457.583 109.856L457.904 109.8Z" fill="black"/>
<path d="M457.636 109.847C456.874 105.526 452.753 102.64 448.432 103.402" stroke="black" stroke-width="0.326521" stroke-linecap="round" stroke-linejoin="round"/>
<path d="M348.575 103.918L348.559 103.978L348.677 104.009L348.693 103.95L348.575 103.918ZM352.268 101.886C352.3 101.895 352.334 101.876 352.343 101.843C352.351 101.811 352.332 101.777 352.299 101.768L352.268 101.886ZM348.693 103.95C349.11 102.393 350.711 101.469 352.268 101.886L352.299 101.768C350.677 101.334 349.01 102.296 348.575 103.918L348.693 103.95Z" fill="black"/>
<path d="M348.595 103.924C349.02 102.334 348.077 100.7 346.488 100.274" stroke="black" stroke-width="0.122454" stroke-linecap="round" stroke-linejoin="round"/>
<path d="M396.959 128.98V129.041H397.081V128.98H396.959ZM400 126.061C400.034 126.061 400.061 126.034 400.061 126C400.061 125.966 400.034 125.939 400 125.939V126.061ZM397.081 128.98C397.081 127.368 398.388 126.061 400 126.061V125.939C398.32 125.939 396.959 127.3 396.959 128.98H397.081Z" fill="black"/>
<path d="M396.979 128.98C396.979 127.334 395.645 126 394 126" stroke="black" stroke-width="0.122454" stroke-linecap="round" stroke-linejoin="round"/>
<path d="M458.219 90.9641L458.229 91.0244L458.35 91.0032L458.339 90.9429L458.219 90.9641ZM460.707 87.5619C460.74 87.556 460.762 87.5243 460.756 87.491C460.751 87.4577 460.719 87.4355 460.686 87.4413L460.707 87.5619ZM458.339 90.9429C458.06 89.3555 459.119 87.8418 460.707 87.5619L460.686 87.4413C459.032 87.733 457.927 89.3102 458.219 90.9641L458.339 90.9429Z" fill="black"/>
<path d="M458.239 90.9606C457.953 89.3399 456.408 88.2578 454.787 88.5435" stroke="black" stroke-width="0.122454" stroke-linecap="round" stroke-linejoin="round"/>
<path d="M526.914 96.4483L526.903 96.5086L527.024 96.5299L527.035 96.4696L526.914 96.4483ZM530.416 94.1023C530.449 94.1081 530.481 94.0859 530.486 94.0526C530.492 94.0193 530.47 93.9875 530.437 93.9817L530.416 94.1023ZM527.035 96.4696C527.314 94.8823 528.828 93.8224 530.416 94.1023L530.437 93.9817C528.783 93.69 527.206 94.7944 526.914 96.4483L527.035 96.4696Z" fill="black"/>
<path d="M526.934 96.4519C527.22 94.8313 526.138 93.2858 524.517 93" stroke="black" stroke-width="0.122454" stroke-linecap="round" stroke-linejoin="round"/>
<path d="M354.575 94.9185L354.559 94.9776L354.677 95.0093L354.693 94.9502L354.575 94.9185ZM358.268 92.8865C358.3 92.8953 358.334 92.8759 358.343 92.8432C358.351 92.8105 358.332 92.777 358.299 92.7682L358.268 92.8865ZM354.693 94.9502C355.11 93.3933 356.711 92.4693 358.268 92.8865L358.299 92.7682C356.677 92.3335 355.01 93.2962 354.575 94.9185L354.693 94.9502Z" fill="black"/>
<path d="M354.595 94.9237C355.02 93.3341 354.077 91.7003 352.488 91.2743" stroke="black" stroke-width="0.122454" stroke-linecap="round" stroke-linejoin="round"/>
<path d="M403.037 119.98L403.04 120.041L403.163 120.035L403.159 119.973L403.037 119.98ZM405.921 116.906C405.955 116.904 405.981 116.876 405.979 116.842C405.977 116.808 405.949 116.782 405.915 116.784L405.921 116.906ZM403.159 119.973C403.075 118.364 404.312 116.991 405.921 116.906L405.915 116.784C404.238 116.872 402.949 118.303 403.037 119.98L403.159 119.973Z" fill="black"/>
<path d="M403.057 119.979C402.971 118.335 401.569 117.073 399.926 117.159" stroke="black" stroke-width="0.122454" stroke-linecap="round" stroke-linejoin="round"/>
<path d="M464.219 81.9641L464.229 82.0244L464.35 82.0032L464.339 81.9429L464.219 81.9641ZM466.707 78.5619C466.74 78.556 466.762 78.5243 466.756 78.491C466.751 78.4577 466.719 78.4355 466.686 78.4413L466.707 78.5619ZM464.339 81.9429C464.06 80.3555 465.119 78.8418 466.707 78.5619L466.686 78.4413C465.032 78.733 463.927 80.3102 464.219 81.9641L464.339 81.9429Z" fill="black"/>
<path d="M464.239 81.9606C463.953 80.3399 462.408 79.2578 460.787 79.5435" stroke="black" stroke-width="0.122454" stroke-linecap="round" stroke-linejoin="round"/>
<path d="M342.149 96.8362L342.117 96.9544L342.353 97.0178L342.385 96.8995L342.149 96.8362ZM349.533 92.7725C349.599 92.79 349.666 92.7512 349.683 92.6859C349.701 92.6206 349.662 92.5535 349.597 92.536L349.533 92.7725ZM342.385 96.8995C343.219 93.786 346.42 91.9382 349.533 92.7725L349.597 92.536C346.352 91.6667 343.018 93.5919 342.149 96.8362L342.385 96.8995Z" fill="black"/>
<path d="M342.189 96.8469C343.04 93.668 341.154 90.4004 337.975 89.5486" stroke="black" stroke-width="0.244889" stroke-linecap="round" stroke-linejoin="round"/>
<path d="M391.073 121.959L391.08 122.081L391.324 122.068L391.318 121.946L391.073 121.959ZM396.841 115.812C396.909 115.809 396.96 115.751 396.957 115.684C396.953 115.616 396.896 115.564 396.828 115.568L396.841 115.812ZM391.318 121.946C391.149 118.727 393.622 115.981 396.841 115.812L396.828 115.568C393.474 115.743 390.898 118.605 391.073 121.959L391.318 121.946Z" fill="black"/>
<path d="M391.115 121.957C390.942 118.67 388.138 116.146 384.852 116.318" stroke="black" stroke-width="0.244889" stroke-linecap="round" stroke-linejoin="round"/>
<path d="M452.436 83.9279L452.457 84.0485L452.699 84.006L452.677 83.8854L452.436 83.9279ZM457.412 77.124C457.478 77.1123 457.523 77.0488 457.511 76.9822C457.499 76.9156 457.436 76.8711 457.369 76.8829L457.412 77.124ZM452.677 83.8854C452.118 80.7109 454.237 77.6838 457.412 77.124L457.369 76.8829C454.062 77.4661 451.853 80.6203 452.436 83.9279L452.677 83.8854Z" fill="black"/>
<path d="M452.477 83.9207C451.906 80.6796 448.815 78.5155 445.574 79.087" stroke="black" stroke-width="0.244889" stroke-linecap="round" stroke-linejoin="round"/>
<path d="M326.441 114.21L326.383 114.427L326.816 114.543L326.875 114.327L326.441 114.21ZM339.98 106.76C340.1 106.792 340.223 106.721 340.255 106.601C340.287 106.482 340.216 106.358 340.096 106.326L339.98 106.76ZM326.875 114.327C328.404 108.618 334.272 105.23 339.98 106.76L340.096 106.326C334.148 104.733 328.035 108.262 326.441 114.21L326.875 114.327Z" fill="black"/>
<path d="M326.513 114.23C328.075 108.402 324.616 102.411 318.788 100.849" stroke="black" stroke-width="0.448981" stroke-linecap="round" stroke-linejoin="round"/>
<path d="M379.136 99.9256L379.148 100.15L379.596 100.126L379.585 99.9021L379.136 99.9256ZM389.711 88.6561C389.834 88.6496 389.929 88.5439 389.923 88.4201C389.916 88.2963 389.811 88.2012 389.687 88.2077L389.711 88.6561ZM379.585 99.9021C379.275 94.0004 383.809 88.9654 389.711 88.6561L389.687 88.2077C383.538 88.53 378.814 93.7763 379.136 99.9256L379.585 99.9021Z" fill="black"/>
<path d="M379.21 99.9217C378.895 93.8962 373.754 89.2675 367.728 89.5833" stroke="black" stroke-width="0.448981" stroke-linecap="round" stroke-linejoin="round"/>
<path d="M427.136 124.926L427.148 125.15L427.596 125.126L427.585 124.902L427.136 124.926ZM437.711 113.656C437.834 113.649 437.929 113.544 437.923 113.42C437.916 113.296 437.811 113.201 437.687 113.208L437.711 113.656ZM427.585 124.902C427.275 119 431.809 113.965 437.711 113.656L437.687 113.208C431.538 113.53 426.814 118.776 427.136 124.926L427.585 124.902Z" fill="black"/>
<path d="M427.21 124.922C426.895 118.896 421.754 114.267 415.728 114.583" stroke="black" stroke-width="0.448981" stroke-linecap="round" stroke-linejoin="round"/>
<path d="M437.137 101.436L437.148 101.66L437.597 101.636L437.585 101.412L437.137 101.436ZM447.711 90.1661C447.835 90.1596 447.93 90.054 447.923 89.9301C447.917 89.8063 447.811 89.7112 447.688 89.7177L447.711 90.1661ZM437.585 101.412C437.276 95.5104 441.809 90.4754 447.711 90.1661L447.688 89.7177C441.538 90.04 436.814 95.2863 437.137 101.436L437.585 101.412Z" fill="black"/>
<path d="M437.211 101.432C436.895 95.4062 431.754 90.7775 425.729 91.0933" stroke="black" stroke-width="0.448981" stroke-linecap="round" stroke-linejoin="round"/>
<path d="M364.098 117.946L364.107 118.109L364.433 118.092L364.425 117.928L364.098 117.946ZM371.789 109.75C371.879 109.745 371.948 109.668 371.943 109.578C371.938 109.488 371.862 109.419 371.772 109.424L371.789 109.75ZM364.425 117.928C364.2 113.636 367.497 109.975 371.789 109.75L371.772 109.424C367.299 109.658 363.864 113.473 364.098 117.946L364.425 117.928Z" fill="black"/>
<path d="M364.153 117.943C363.923 113.561 360.184 110.194 355.802 110.424" stroke="black" stroke-width="0.326521" stroke-linecap="round" stroke-linejoin="round"/>
<path d="M473.582 104.904L473.611 105.065L473.932 105.008L473.904 104.847L473.582 104.904ZM480.216 95.832C480.305 95.8163 480.364 95.7317 480.349 95.6429C480.333 95.5541 480.248 95.4948 480.16 95.5104L480.216 95.832ZM473.904 104.847C473.157 100.615 475.984 96.5783 480.216 95.832L480.16 95.5104C475.749 96.2881 472.805 100.494 473.582 104.904L473.904 104.847Z" fill="black"/>
<path d="M473.636 104.894C472.874 100.573 468.753 97.6875 464.431 98.4495" stroke="black" stroke-width="0.326521" stroke-linecap="round" stroke-linejoin="round"/>
<path d="M514.771 84.1948L514.742 84.3556L515.064 84.4123L515.092 84.2515L514.771 84.1948ZM524.107 77.939C524.196 77.9547 524.281 77.8954 524.296 77.8066C524.312 77.7178 524.253 77.6331 524.164 77.6175L524.107 77.939ZM515.092 84.2515C515.838 80.0189 519.875 77.1927 524.107 77.939L524.164 77.6175C519.754 76.8398 515.548 79.7846 514.771 84.1948L515.092 84.2515Z" fill="black"/>
<path d="M514.824 84.2043C515.586 79.8828 512.701 75.7619 508.379 74.9999" stroke="black" stroke-width="0.326521" stroke-linecap="round" stroke-linejoin="round"/>
</svg>
