<svg width="190" height="113" viewBox="0 0 190 113" fill="none" xmlns="http://www.w3.org/2000/svg">
<g id="Group 23">
<g id="Jug (Rest)">
<path id="Vector 6" d="M162.123 1.87689L125 39H132.157C132.555 39 132.936 39.158 133.218 39.4393L151.623 57.8447C152.467 58.6886 153.585 59.2029 154.775 59.2944L155.234 59.3297C156.689 59.4417 158.121 58.9121 159.153 57.88L175.7 41.3332C176.732 40.3011 177.261 38.8695 177.15 37.4142L177.114 36.9551C177.023 35.765 176.508 34.647 175.664 33.803L157.173 15.3119C156.588 14.7261 156.588 13.7764 157.173 13.1906L161.77 8.59441C162.551 7.81336 163.817 7.81336 164.598 8.59441L169.901 13.8977C170.487 14.4835 171.437 14.4835 172.023 13.8977L173.083 12.837C173.669 12.2513 173.669 11.3015 173.083 10.7157L164.244 1.87689C163.659 1.29111 162.709 1.29111 162.123 1.87689Z" fill="#B178B3" stroke="#B178B3" stroke-linejoin="round"/>
<path id="Vector 7" d="M158.211 53.8719L171.692 40.3915C172.59 39.4928 173.064 38.2539 172.993 36.9849C172.933 35.8872 172.469 34.8504 171.692 34.0729L154.345 16.7261L134.546 36.5251L151.893 53.8719C152.67 54.6494 153.707 55.1128 154.805 55.1737C156.074 55.244 157.313 54.7706 158.211 53.8719Z" fill="#78437B" stroke="#78437B"/>
</g>
<path id="Star 1" d="M91.061 51.805C91.2505 51.4575 91.7495 51.4575 91.939 51.805L92.7882 53.3622C92.8601 53.494 92.9875 53.5866 93.1352 53.6142L94.8786 53.9407C95.2676 54.0136 95.4218 54.4881 95.1499 54.7757L93.9313 56.0646C93.8281 56.1737 93.7795 56.3235 93.7988 56.4724L94.0271 58.2314C94.078 58.6239 93.6743 58.9172 93.3168 58.7475L91.7144 57.9868C91.5787 57.9224 91.4213 57.9224 91.2856 57.9868L89.6832 58.7475C89.3257 58.9172 88.922 58.6239 88.9729 58.2314L89.2012 56.4724C89.2205 56.3235 89.1719 56.1737 89.0687 56.0646L87.8501 54.7757C87.5782 54.4881 87.7324 54.0136 88.1214 53.9407L89.8648 53.6142C90.0125 53.5866 90.1399 53.494 90.2118 53.3622L91.061 51.805Z" fill="#E4AE50"/>
<circle id="Round particle" r="3.5" transform="matrix(1 0 0 -1 99.5 59.5001)" fill="#E4AE50"/>
<g id="Pouring">
<path d="M106.247 63.1486C111.305 47.829 116.151 43.6999 125.5 39.0001C125.5 39.0001 118 47.6509 117 50.6985C116 53.7461 116 70.0001 116 70.0001H106V64.6922C106 64.1705 106.083 63.644 106.247 63.1486Z" fill="#E4AE50"/>
<path d="M125.5 39.0001L125.878 39.3276C126.034 39.1472 126.041 38.8815 125.895 38.693C125.748 38.5046 125.489 38.4461 125.275 38.5533L125.5 39.0001ZM106.247 63.1486L106.722 63.3054H106.722L106.247 63.1486ZM106 70.0001H105.5C105.5 70.2762 105.724 70.5001 106 70.5001V70.0001ZM116 70.0001V70.5001C116.276 70.5001 116.5 70.2762 116.5 70.0001H116ZM125.275 38.5533C120.581 40.9134 116.961 43.1568 113.884 46.7676C110.811 50.3731 108.31 55.3049 105.772 62.9919L106.722 63.3054C109.242 55.6728 111.693 50.8802 114.645 47.4163C117.592 43.9577 121.07 41.7866 125.725 39.4468L125.275 38.5533ZM105.5 64.6922V70.0001H106.5V64.6922H105.5ZM106 70.5001H116V69.5001H106V70.5001ZM116 70.0001C116.5 70.0001 116.5 70 116.5 69.9999C116.5 69.9998 116.5 69.9996 116.5 69.9994C116.5 69.9989 116.5 69.9982 116.5 69.9972C116.5 69.9953 116.5 69.9924 116.5 69.9885C116.5 69.9808 116.5 69.9692 116.5 69.9538C116.5 69.9232 116.5 69.8775 116.5 69.8178C116.5 69.6984 116.501 69.5227 116.502 69.2979C116.504 68.8483 116.508 68.2024 116.516 67.4177C116.531 65.8482 116.562 63.7244 116.625 61.5062C116.687 59.287 116.781 56.9778 116.921 55.036C117.062 53.0692 117.248 51.5468 117.475 50.8544L116.525 50.5426C116.252 51.3739 116.063 53.0262 115.923 54.9641C115.782 56.9271 115.688 59.2528 115.625 61.4781C115.563 63.7043 115.531 65.8345 115.516 67.4078C115.508 68.1946 115.504 68.8423 115.502 69.2935C115.501 69.5191 115.5 69.6956 115.5 69.8158C115.5 69.8758 115.5 69.9218 115.5 69.9528C115.5 69.9684 115.5 69.9801 115.5 69.988C115.5 69.992 115.5 69.995 115.5 69.997C115.5 69.998 115.5 69.9987 115.5 69.9993C115.5 69.9995 115.5 69.9997 115.5 69.9998C115.5 70 115.5 70.0001 116 70.0001ZM117.475 50.8544C117.701 50.1673 118.318 49.1078 119.163 47.8662C119.998 46.6401 121.021 45.283 122.018 44.0155C123.014 42.7488 123.979 41.5764 124.696 40.7203C125.054 40.2924 125.35 39.9438 125.556 39.7024C125.659 39.5817 125.74 39.4878 125.794 39.4241C125.822 39.3923 125.843 39.3681 125.857 39.3518C125.864 39.3437 125.869 39.3376 125.873 39.3335C125.874 39.3315 125.876 39.33 125.877 39.329C125.877 39.3285 125.877 39.3281 125.878 39.3279C125.878 39.3278 125.878 39.3277 125.878 39.3277C125.878 39.3276 125.878 39.3276 125.5 39.0001C125.122 38.6725 125.122 38.6726 125.122 38.6727C125.122 38.6727 125.122 38.6729 125.122 38.673C125.122 38.6733 125.121 38.6737 125.121 38.6743C125.12 38.6754 125.118 38.677 125.116 38.6791C125.113 38.6834 125.107 38.6898 125.1 38.6981C125.086 38.7148 125.064 38.7395 125.037 38.7718C124.981 38.8364 124.899 38.9313 124.796 39.0531C124.588 39.2966 124.29 39.6477 123.929 40.0784C123.208 40.9396 122.236 42.1203 121.232 43.3974C120.229 44.6734 119.19 46.0505 118.337 47.3035C117.494 48.5411 116.799 49.7059 116.525 50.5426L117.475 50.8544ZM105.772 62.9919C105.592 63.5387 105.5 64.1181 105.5 64.6922H106.5C106.5 64.2229 106.575 63.7494 106.722 63.3054L105.772 62.9919Z" fill="#E4AE50"/>
</g>
<g id="Whisk">
<path id="Vector 10" d="M77.3435 77.9894L76.8807 78.4522C76.4847 78.8482 76.0183 79.1815 75.5089 79.4143C61.4313 85.8497 53.8103 78.9372 42.3751 51.353C42.1218 50.7418 41.7464 50.1722 41.2786 49.7044L8.7533 17.1791V17.1791C7.1912 15.617 7.1912 13.0843 8.7533 11.5222L9.8148 10.4607" stroke="#171821"/>
<path id="Vector 11" d="M76.9893 78.3436L77.4521 77.8808C77.8481 77.4848 78.1813 77.0184 78.4141 76.509C84.8496 62.4314 77.9371 54.8104 50.3528 43.3752C49.7417 43.1218 49.1721 42.7465 48.7043 42.2787L16.1789 9.75336V9.75336C14.6169 8.19126 12.0842 8.19126 10.5221 9.75336L9.46059 10.8149" stroke="#171821"/>
<g id="Group 10">
<path id="Vector 12" d="M47.1129 48.1139C55.263 63.9032 61.3505 71.6361 77.3429 77.99" stroke="#171821"/>
<path id="Vector 13" d="M47.1132 48.1136C62.9025 56.2637 70.6354 62.3512 76.9894 78.3436" stroke="#171821"/>
</g>
<path id="Vector 14" d="M39.3359 40.3366L47.4677 48.4683" stroke="#171821" stroke-width="1.3"/>
<rect id="Rectangle 1" x="11.5819" y="20.7144" width="11.5" height="36" transform="rotate(-45 11.5819 20.7144)" fill="#2B6A6B" stroke="#2B6A6B"/>
</g>
<g id="Bowl">
<g id="Vector 8">
<path d="M26 63.0001H76V112H53V107C38.0587 97.0471 29.7682 91.3244 26 63.0001Z" fill="#B178B3"/>
<path d="M76 63.0001H76.5V62.5001H76V63.0001ZM26 63.0001V62.5001C25.8559 62.5001 25.7188 62.5622 25.6239 62.6706C25.5289 62.7791 25.4854 62.9232 25.5044 63.066L26 63.0001ZM53 107H53.5C53.5 106.833 53.4164 106.677 53.2772 106.584L53 107ZM53 112H52.5C52.5 112.276 52.7239 112.5 53 112.5V112ZM76 112V112.5H76.5V112H76ZM76 62.5001H26V63.5001H76V62.5001ZM25.5044 63.066C27.3935 77.2659 30.4242 85.8692 34.9024 92.1787C39.3757 98.4815 45.2642 102.448 52.7228 107.416L53.2772 106.584C45.7945 101.599 40.0671 97.7278 35.7178 91.5999C31.3734 85.4788 28.3747 77.0586 26.4956 62.9341L25.5044 63.066ZM52.5 107V112H53.5V107H52.5ZM53 112.5H76V111.5H53V112.5ZM76.5 112V63.0001H75.5V112H76.5Z" fill="#B178B3"/>
</g>
<g id="Vector 9">
<path d="M126 63.0001H76V112H99V107C113.941 97.0471 122.232 91.3244 126 63.0001Z" fill="#B178B3"/>
<path d="M76 63.0001H75.5V62.5001H76V63.0001ZM126 63.0001V62.5001C126.144 62.5001 126.281 62.5622 126.376 62.6706C126.471 62.7791 126.515 62.9232 126.496 63.066L126 63.0001ZM99 107H98.5C98.5 106.833 98.5836 106.677 98.7228 106.584L99 107ZM99 112H99.5C99.5 112.276 99.2761 112.5 99 112.5V112ZM76 112V112.5H75.5V112H76ZM76 62.5001H126V63.5001H76V62.5001ZM126.496 63.066C124.607 77.2659 121.576 85.8692 117.098 92.1787C112.624 98.4815 106.736 102.448 99.2772 107.416L98.7228 106.584C106.206 101.599 111.933 97.7278 116.282 91.5999C120.627 85.4788 123.625 77.0586 125.504 62.9341L126.496 63.066ZM99.5 107V112H98.5V107H99.5ZM99 112.5H76V111.5H99V112.5ZM75.5 112V63.0001H76.5V112H75.5Z" fill="#B178B3"/>
</g>
</g>
</g>
</svg>
