<svg width="56" height="39" viewBox="0 0 56 39" fill="none" xmlns="http://www.w3.org/2000/svg">
<path d="M53.5 1H1L6.06066 6.06066C6.34196 6.34196 6.5 6.7235 6.5 7.12132V33.1504C6.5 34.3439 6.92696 35.4981 7.70372 36.4043L8.00339 36.754C8.9533 37.8622 10.3401 38.5 11.7997 38.5H35.2003C36.66 38.5 38.0467 37.8622 38.9966 36.754L39.2963 36.4043C40.073 35.4981 40.5 34.3439 40.5 33.1504V7C40.5 6.17157 41.1716 5.5 42 5.5H48.5C49.6046 5.5 50.5 6.39543 50.5 7.5V15C50.5 15.8284 51.1716 16.5 52 16.5H53.5C54.3284 16.5 55 15.8284 55 15V2.5C55 1.67157 54.3284 1 53.5 1Z" fill="#B178B3" stroke="#B178B3" stroke-linejoin="round"/>
<path d="M13.9679 35H33.0321C34.303 35 35.5138 34.4587 36.3614 33.5117C37.0946 32.6924 37.5 31.6316 37.5 30.5321V21H9.5V30.5321C9.5 31.6316 9.90539 32.6924 10.6386 33.5117C11.4862 34.4587 12.697 35 13.9679 35Z" fill="#78437B" stroke="#78437B"/>
</svg>
