<svg width="258" height="32" viewBox="0 0 258 32" fill="none" xmlns="http://www.w3.org/2000/svg">
<path fill-rule="evenodd" clip-rule="evenodd" d="M2.51639 3H1.2C0.537258 3 0 2.46274 0 1.8V1.2C0 0.537258 0.537258 0 1.2 0H79H156.8C157.463 0 158 0.537258 158 1.2V1.8C158 2.46274 157.463 3 156.8 3H155.484C155.214 3 154.993 3.22017 154.981 3.48956C154.372 17.0584 147.485 22.3265 137.8 29.7343C137.05 30.3084 136.282 30.8953 135.5 31.5H79H22.5C21.7175 30.8953 20.9502 30.3084 20.1997 29.7343C10.5154 22.3265 3.62848 17.0584 3.01913 3.48956C3.00704 3.22017 2.78605 3 2.51639 3Z" fill="#171821"/>
<path d="M160 2.5V10.0002H257C257 3.00019 247 0.499996 236 0.5H216C202.895 2.14147 196.541 3.48321 185.5 6H163.5V2.5C163.5 1.94772 163.052 1.5 162.5 1.5H161C160.448 1.5 160 1.94772 160 2.5Z" fill="#171821"/>
<path d="M160 10.0002H159.5V10.5002H160V10.0002ZM163.5 6H163V6.5H163.5V6ZM185.5 6V6.5C185.537 6.5 185.575 6.49581 185.611 6.48749L185.5 6ZM216 0.5V0C215.979 0 215.958 0.00129467 215.938 0.00387651L216 0.5ZM236 0.5V1V0.5ZM257 10.0002V10.5002H257.5V10.0002H257ZM160.5 10.0002V2.5H159.5V10.0002H160.5ZM161 2H162.5V1H161V2ZM163 2.5V6H164V2.5H163ZM163.5 6.5H185.5V5.5H163.5V6.5ZM185.611 6.48749C196.643 3.9729 202.979 2.63484 216.062 0.996123L215.938 0.00387651C202.811 1.6481 196.44 2.99351 185.389 5.51251L185.611 6.48749ZM216 1H236V0H216V1ZM236 1C241.474 0.999998 246.653 1.6237 250.444 3.09137C254.241 4.56096 256.5 6.80646 256.5 10.0002H257.5C257.5 6.19392 254.759 3.68932 250.806 2.15881C246.847 0.62639 241.526 -1.90735e-06 236 0V1ZM160 10.5002H257V9.50019H160V10.5002ZM162.5 2C162.776 2 163 2.22386 163 2.5H164C164 1.67157 163.328 1 162.5 1V2ZM160.5 2.5C160.5 2.22386 160.724 2 161 2V1C160.172 1 159.5 1.67157 159.5 2.5H160.5Z" fill="#171821"/>
<path d="M160 18.0002V10.5H257C257 17.5 247 20.0002 236 20.0002H216C202.895 18.3587 196.541 17.017 185.5 14.5002H163.5V18.0002C163.5 18.5525 163.052 19.0002 162.5 19.0002H161C160.448 19.0002 160 18.5525 160 18.0002Z" fill="#171821"/>
<path d="M160 10.5H159.5V10H160V10.5ZM163.5 14.5002H163V14.0002H163.5V14.5002ZM185.5 14.5002V14.0002C185.537 14.0002 185.575 14.0044 185.611 14.0127L185.5 14.5002ZM216 20.0002V20.5002C215.979 20.5002 215.958 20.4989 215.938 20.4963L216 20.0002ZM236 20.0002V19.5002V20.0002ZM257 10.5V10H257.5V10.5H257ZM160.5 10.5V18.0002H159.5V10.5H160.5ZM161 18.5002H162.5V19.5002H161V18.5002ZM163 18.0002V14.5002H164V18.0002H163ZM163.5 14.0002H185.5V15.0002H163.5V14.0002ZM185.611 14.0127C196.643 16.5273 202.979 17.8653 216.062 19.5041L215.938 20.4963C202.811 18.8521 196.44 17.5067 185.389 14.9877L185.611 14.0127ZM216 19.5002H236V20.5002H216V19.5002ZM236 19.5002C241.474 19.5002 246.653 18.8765 250.444 17.4088C254.241 15.9392 256.5 13.6937 256.5 10.5H257.5C257.5 14.3063 254.759 16.8109 250.806 18.3414C246.847 19.8738 241.526 20.5002 236 20.5002V19.5002ZM160 10H257V11H160V10ZM162.5 18.5002C162.776 18.5002 163 18.2763 163 18.0002H164C164 18.8286 163.328 19.5002 162.5 19.5002V18.5002ZM160.5 18.0002C160.5 18.2763 160.724 18.5002 161 18.5002V19.5002C160.172 19.5002 159.5 18.8286 159.5 18.0002H160.5Z" fill="#171821"/>
</svg>
